<?xml version="1.0" standalone="no"?>
<!DOCTYPE svg PUBLIC "-//W3C//DTD SVG 20010904//EN"
        "http://www.w3.org/TR/2001/REC-SVG-20010904/DTD/svg10.dtd">
<svg version="1.0" xmlns="http://www.w3.org/2000/svg"
     width="888.000000pt" height="888.000000pt" viewBox="0 0 888.000000 888.000000"
     preserveAspectRatio="xMidYMid meet">
    <metadata>
        Created by potrace 1.14, written by Peter Selinger 2001-2017
    </metadata>
    <g transform="translate(0.000000,888.000000) scale(0.100000,-0.100000)"
       fill="#000000" stroke="none">
        <path d="M2465 6812 c-11 -2 -87 -24 -170 -49 -156 -47 -229 -69 -280 -83 -16
-5 -61 -18 -100 -30 -38 -12 -90 -27 -115 -35 -51 -14 -412 -123 -535 -160
-44 -13 -185 -56 -313 -95 -129 -38 -237 -72 -241 -74 -4 -3 -19 -7 -32 -9
-14 -3 -56 -15 -94 -27 -39 -12 -78 -23 -87 -25 -49 -10 -94 -53 -104 -99 -6
-23 -5 -134 1 -181 2 -16 7 -61 10 -100 3 -38 8 -83 10 -100 2 -16 6 -66 10
-110 3 -44 8 -96 10 -115 2 -19 7 -64 10 -100 3 -36 8 -85 10 -110 3 -25 7
-77 10 -116 3 -39 8 -81 10 -94 2 -12 13 -76 25 -143 28 -164 67 -357 89 -442
11 -38 22 -90 26 -115 4 -25 11 -49 15 -55 4 -5 12 -26 18 -45 29 -98 84 -267
91 -285 5 -11 30 -73 55 -137 25 -64 60 -148 78 -185 18 -37 33 -70 33 -73 1
-3 10 -23 21 -45 199 -390 466 -726 762 -958 61 -48 115 -87 120 -87 6 0 12
-3 14 -7 9 -21 190 -129 313 -187 55 -26 108 -51 117 -57 10 -5 46 -18 80 -30
35 -12 69 -27 77 -33 10 -8 747 -11 2740 -11 l2727 0 29 25 c17 13 109 130
205 259 96 129 204 274 239 321 89 117 103 145 103 190 -1 44 -21 80 -60 107
-24 16 -58 19 -302 23 l-275 5 45 21 c65 31 208 138 249 188 9 10 23 26 31 35
132 140 214 383 212 623 -2 173 -43 331 -125 474 -19 33 -131 173 -139 174 -4
0 -26 18 -50 40 -24 22 -48 40 -55 40 -6 0 -13 4 -15 8 -6 15 -93 67 -182 111
-108 53 -226 102 -226 94 0 -3 -7 0 -15 7 -8 7 -15 25 -15 40 l0 28 268 -2
c289 -3 337 3 398 50 43 32 77 106 79 169 2 68 -27 222 -60 320 -27 79 -83
197 -97 203 -5 2 -8 8 -8 14 0 6 -19 33 -42 62 -166 201 -354 311 -632 372
-86 18 -101 20 -241 29 -227 14 -490 -54 -676 -175 -98 -64 -143 -102 -204
-172 -83 -95 -138 -189 -176 -302 l-32 -96 -38 57 c-74 112 -101 146 -199 244
-75 76 -170 153 -245 199 -22 13 -42 27 -45 30 -7 9 -194 100 -200 98 -3 -1
-16 5 -30 12 -14 8 -27 15 -30 15 -3 1 -36 11 -75 22 -67 20 -104 29 -205 52
-108 24 -330 32 -465 16 -98 -11 -105 -11 -165 7 -30 9 -217 65 -415 123 -198
59 -605 181 -905 272 -614 185 -598 180 -625 175z"/>
    </g>
</svg>
